<svg xmlns="http://www.w3.org/2000/svg" xmlns:xlink="http://www.w3.org/1999/xlink" width="465" zoomAndPan="magnify" viewBox="0 0 348.75 89.999999" height="120" preserveAspectRatio="xMidYMid meet" version="1.0"><defs><g/><clipPath id="b88332d1aa"><path d="M 74.691406 29.175781 L 105.226562 29.175781 L 105.226562 61 L 74.691406 61 Z M 74.691406 29.175781 " clip-rule="nonzero"/></clipPath><clipPath id="37a66f4953"><path d="M 89.960938 29.175781 C 81.527344 29.175781 74.691406 36.277344 74.691406 45.03125 C 74.691406 53.789062 81.527344 60.886719 89.960938 60.886719 C 98.390625 60.886719 105.226562 53.789062 105.226562 45.03125 C 105.226562 36.277344 98.390625 29.175781 89.960938 29.175781 " clip-rule="nonzero"/></clipPath><clipPath id="df107d084c"><path d="M 243.523438 29.175781 L 274.058594 29.175781 L 274.058594 61 L 243.523438 61 Z M 243.523438 29.175781 " clip-rule="nonzero"/></clipPath><clipPath id="277d54ee22"><path d="M 258.789062 29.175781 C 250.359375 29.175781 243.523438 36.277344 243.523438 45.03125 C 243.523438 53.789062 250.359375 60.886719 258.789062 60.886719 C 267.222656 60.886719 274.058594 53.789062 274.058594 45.03125 C 274.058594 36.277344 267.222656 29.175781 258.789062 29.175781 " clip-rule="nonzero"/></clipPath></defs><g clip-path="url(#b88332d1aa)"><g clip-path="url(#37a66f4953)"><path fill="#a6a6a6" d="M 74.691406 29.175781 L 105.226562 29.175781 L 105.226562 60.667969 L 74.691406 60.667969 Z M 74.691406 29.175781 " fill-opacity="1" fill-rule="nonzero"/></g></g><g fill="#ffffff" fill-opacity="1"><g transform="translate(87.030769, 48.677346)"><g><path d="M 0.5625 0 L 0.5625 -0.765625 L 2.703125 -0.765625 L 2.703125 -6.765625 L 2.578125 -6.796875 C 2.234375 -6.628906 1.925781 -6.5 1.65625 -6.40625 C 1.394531 -6.3125 1.0625 -6.222656 0.65625 -6.140625 L 0.65625 -6.984375 C 1.0625 -7.066406 1.460938 -7.179688 1.859375 -7.328125 C 2.253906 -7.484375 2.613281 -7.660156 2.9375 -7.859375 L 3.609375 -7.859375 L 3.609375 -0.765625 L 5.515625 -0.765625 L 5.515625 0 Z M 0.5625 0 "/></g></g></g><path stroke-linecap="butt" transform="matrix(0.748411, 0, 0, 0.75, 105.227969, 43.53223)" fill="none" stroke-linejoin="miter" d="M -0.00187928 1.998693 L 182.389738 1.998693 " stroke="#a6a6a6" stroke-width="4" stroke-opacity="1" stroke-miterlimit="4"/><path stroke-linecap="round" transform="matrix(2.993644, 0, 0, 3, 243.229022, 45.032233)" fill="none" stroke-linejoin="round" d="M -2.499605 -1.500328 L -0.500578 -0.000327506 L -2.499605 1.499673 " stroke="#a6a6a6" stroke-width="1" stroke-opacity="1" stroke-miterlimit="4"/><g clip-path="url(#df107d084c)"><g clip-path="url(#277d54ee22)"><path fill="#ffbd59" d="M 243.523438 29.175781 L 274.058594 29.175781 L 274.058594 60.667969 L 243.523438 60.667969 Z M 243.523438 29.175781 " fill-opacity="1" fill-rule="nonzero"/></g></g><g fill="#ffffff" fill-opacity="1"><g transform="translate(255.768107, 48.677346)"><g><path d="M 0.46875 -0.359375 C 0.46875 -0.796875 0.515625 -1.144531 0.609375 -1.40625 C 0.703125 -1.675781 0.863281 -1.925781 1.09375 -2.15625 C 1.320312 -2.382812 1.691406 -2.679688 2.203125 -3.046875 L 3.0625 -3.671875 C 3.382812 -3.898438 3.644531 -4.113281 3.84375 -4.3125 C 4.039062 -4.507812 4.195312 -4.722656 4.3125 -4.953125 C 4.425781 -5.179688 4.484375 -5.441406 4.484375 -5.734375 C 4.484375 -6.191406 4.359375 -6.539062 4.109375 -6.78125 C 3.867188 -7.019531 3.484375 -7.140625 2.953125 -7.140625 C 2.546875 -7.140625 2.179688 -7.039062 1.859375 -6.84375 C 1.535156 -6.65625 1.273438 -6.382812 1.078125 -6.03125 L 0.953125 -6 L 0.40625 -6.578125 C 0.664062 -7.015625 1.007812 -7.351562 1.4375 -7.59375 C 1.875 -7.84375 2.378906 -7.96875 2.953125 -7.96875 C 3.515625 -7.96875 3.976562 -7.867188 4.34375 -7.671875 C 4.71875 -7.484375 4.992188 -7.222656 5.171875 -6.890625 C 5.347656 -6.554688 5.4375 -6.171875 5.4375 -5.734375 C 5.4375 -5.378906 5.359375 -5.050781 5.203125 -4.75 C 5.054688 -4.445312 4.847656 -4.160156 4.578125 -3.890625 C 4.316406 -3.617188 3.984375 -3.335938 3.578125 -3.046875 L 2.703125 -2.40625 C 2.378906 -2.164062 2.128906 -1.957031 1.953125 -1.78125 C 1.773438 -1.613281 1.644531 -1.453125 1.5625 -1.296875 C 1.476562 -1.140625 1.4375 -0.960938 1.4375 -0.765625 L 5.4375 -0.765625 L 5.4375 0 L 0.46875 0 Z M 0.46875 -0.359375 "/></g></g></g><g fill="#a6a6a6" fill-opacity="1"><g transform="translate(74.690927, 71.037121)"><g><path d="M 2.109375 -7.859375 L 2.109375 -0.765625 L 5.890625 -0.765625 L 5.890625 0 L 1.1875 0 L 1.1875 -7.859375 Z M 2.109375 -7.859375 "/></g></g></g><g fill="#a6a6a6" fill-opacity="1"><g transform="translate(80.911603, 71.037121)"><g><path d="M 3.40625 0.109375 C 2.84375 0.109375 2.351562 -0.00390625 1.9375 -0.234375 C 1.53125 -0.472656 1.210938 -0.820312 0.984375 -1.28125 C 0.765625 -1.75 0.65625 -2.304688 0.65625 -2.953125 C 0.65625 -3.609375 0.765625 -4.164062 0.984375 -4.625 C 1.210938 -5.09375 1.53125 -5.441406 1.9375 -5.671875 C 2.351562 -5.910156 2.84375 -6.03125 3.40625 -6.03125 C 3.957031 -6.03125 4.441406 -5.910156 4.859375 -5.671875 C 5.273438 -5.441406 5.59375 -5.09375 5.8125 -4.625 C 6.039062 -4.164062 6.15625 -3.609375 6.15625 -2.953125 C 6.15625 -2.304688 6.039062 -1.75 5.8125 -1.28125 C 5.59375 -0.820312 5.273438 -0.472656 4.859375 -0.234375 C 4.441406 -0.00390625 3.957031 0.109375 3.40625 0.109375 Z M 3.40625 -0.671875 C 3.988281 -0.671875 4.4375 -0.851562 4.75 -1.21875 C 5.0625 -1.59375 5.21875 -2.171875 5.21875 -2.953125 C 5.21875 -3.742188 5.0625 -4.320312 4.75 -4.6875 C 4.4375 -5.0625 3.988281 -5.25 3.40625 -5.25 C 2.8125 -5.25 2.351562 -5.0625 2.03125 -4.6875 C 1.71875 -4.3125 1.5625 -3.734375 1.5625 -2.953125 C 1.5625 -2.171875 1.71875 -1.59375 2.03125 -1.21875 C 2.351562 -0.851562 2.8125 -0.671875 3.40625 -0.671875 Z M 3.40625 -0.671875 "/></g></g></g><g fill="#a6a6a6" fill-opacity="1"><g transform="translate(87.706577, 71.037121)"><g><path d="M 3.046875 2.515625 C 2.117188 2.515625 1.4375 2.359375 1 2.046875 C 0.570312 1.734375 0.359375 1.320312 0.359375 0.8125 C 0.359375 0.476562 0.457031 0.210938 0.65625 0.015625 C 0.863281 -0.179688 1.15625 -0.320312 1.53125 -0.40625 L 1.53125 -0.53125 C 1.351562 -0.632812 1.21875 -0.753906 1.125 -0.890625 C 1.03125 -1.023438 0.984375 -1.191406 0.984375 -1.390625 C 0.984375 -1.617188 1.054688 -1.804688 1.203125 -1.953125 C 1.347656 -2.097656 1.566406 -2.207031 1.859375 -2.28125 L 1.859375 -2.390625 C 1.210938 -2.734375 0.890625 -3.285156 0.890625 -4.046875 C 0.890625 -4.429688 0.972656 -4.773438 1.140625 -5.078125 C 1.316406 -5.378906 1.566406 -5.613281 1.890625 -5.78125 C 2.222656 -5.945312 2.609375 -6.03125 3.046875 -6.03125 C 3.535156 -6.03125 3.945312 -5.921875 4.28125 -5.703125 C 4.40625 -5.847656 4.5 -6 4.5625 -6.15625 C 4.625 -6.3125 4.664062 -6.492188 4.6875 -6.703125 L 4.796875 -6.765625 L 5.515625 -6.59375 C 5.484375 -6.289062 5.394531 -6.035156 5.25 -5.828125 C 5.101562 -5.617188 4.898438 -5.445312 4.640625 -5.3125 L 4.640625 -5.203125 C 4.828125 -5.054688 4.960938 -4.878906 5.046875 -4.671875 C 5.140625 -4.472656 5.1875 -4.238281 5.1875 -3.96875 C 5.1875 -3.59375 5.097656 -3.253906 4.921875 -2.953125 C 4.742188 -2.660156 4.488281 -2.429688 4.15625 -2.265625 C 3.832031 -2.097656 3.460938 -2.015625 3.046875 -2.015625 C 2.992188 -2.015625 2.898438 -2.015625 2.765625 -2.015625 C 2.628906 -2.023438 2.523438 -2.03125 2.453125 -2.03125 C 2.265625 -2.03125 2.113281 -1.976562 2 -1.875 C 1.894531 -1.78125 1.84375 -1.660156 1.84375 -1.515625 C 1.84375 -1.328125 1.898438 -1.1875 2.015625 -1.09375 C 2.140625 -1.007812 2.335938 -0.960938 2.609375 -0.953125 L 4.015625 -0.90625 C 4.617188 -0.882812 5.066406 -0.742188 5.359375 -0.484375 C 5.648438 -0.222656 5.796875 0.144531 5.796875 0.625 C 5.796875 0.976562 5.703125 1.296875 5.515625 1.578125 C 5.328125 1.859375 5.023438 2.082031 4.609375 2.25 C 4.203125 2.425781 3.679688 2.515625 3.046875 2.515625 Z M 3.046875 -2.765625 C 3.460938 -2.765625 3.785156 -2.875 4.015625 -3.09375 C 4.242188 -3.3125 4.359375 -3.613281 4.359375 -4 C 4.359375 -4.414062 4.242188 -4.734375 4.015625 -4.953125 C 3.785156 -5.171875 3.460938 -5.28125 3.046875 -5.28125 C 2.617188 -5.28125 2.289062 -5.171875 2.0625 -4.953125 C 1.84375 -4.734375 1.734375 -4.414062 1.734375 -4 C 1.734375 -3.601562 1.84375 -3.296875 2.0625 -3.078125 C 2.289062 -2.867188 2.617188 -2.765625 3.046875 -2.765625 Z M 3.046875 1.765625 C 3.484375 1.765625 3.835938 1.710938 4.109375 1.609375 C 4.390625 1.515625 4.59375 1.390625 4.71875 1.234375 C 4.84375 1.078125 4.90625 0.898438 4.90625 0.703125 C 4.90625 0.523438 4.867188 0.378906 4.796875 0.265625 C 4.734375 0.160156 4.628906 0.0820312 4.484375 0.03125 C 4.335938 -0.0195312 4.140625 -0.0507812 3.890625 -0.0625 L 2.5625 -0.140625 L 2.375 -0.140625 C 1.625 -0.128906 1.25 0.160156 1.25 0.734375 C 1.25 1.421875 1.847656 1.765625 3.046875 1.765625 Z M 3.046875 1.765625 "/></g></g></g><g fill="#a6a6a6" fill-opacity="1"><g transform="translate(93.771602, 71.037121)"><g><path d="M 1.46875 -7.0625 C 1.28125 -7.0625 1.128906 -7.117188 1.015625 -7.234375 C 0.898438 -7.359375 0.84375 -7.507812 0.84375 -7.6875 C 0.84375 -7.863281 0.898438 -8.007812 1.015625 -8.125 C 1.128906 -8.238281 1.28125 -8.296875 1.46875 -8.296875 C 1.65625 -8.296875 1.804688 -8.238281 1.921875 -8.125 C 2.035156 -8.007812 2.09375 -7.863281 2.09375 -7.6875 C 2.09375 -7.507812 2.035156 -7.359375 1.921875 -7.234375 C 1.804688 -7.117188 1.65625 -7.0625 1.46875 -7.0625 Z M 1.03125 0 L 1.03125 -5.921875 L 1.90625 -5.921875 L 1.90625 0 Z M 1.03125 0 "/></g></g></g><g fill="#a6a6a6" fill-opacity="1"><g transform="translate(96.707503, 71.037121)"><g><path d="M 1.03125 0 L 1.03125 -5.921875 L 1.859375 -5.921875 L 1.859375 -5 L 1.984375 -4.96875 C 2.171875 -5.3125 2.414062 -5.570312 2.71875 -5.75 C 3.03125 -5.9375 3.40625 -6.03125 3.84375 -6.03125 C 4.5625 -6.03125 5.078125 -5.847656 5.390625 -5.484375 C 5.710938 -5.128906 5.875 -4.570312 5.875 -3.8125 L 5.875 0 L 5 0 L 5 -3.796875 C 5 -4.148438 4.953125 -4.4375 4.859375 -4.65625 C 4.773438 -4.875 4.632812 -5.03125 4.4375 -5.125 C 4.25 -5.226562 4 -5.28125 3.6875 -5.28125 C 3.15625 -5.28125 2.722656 -5.101562 2.390625 -4.75 C 2.066406 -4.394531 1.90625 -3.828125 1.90625 -3.046875 L 1.90625 0 Z M 1.03125 0 "/></g></g></g><g fill="#ffbd59" fill-opacity="1"><g transform="translate(216.513084, 71.037121)"><g><path d="M 4.3125 0.109375 C 3.625 0.109375 3.015625 -0.0351562 2.484375 -0.328125 C 1.960938 -0.617188 1.546875 -1.066406 1.234375 -1.671875 C 0.929688 -2.273438 0.78125 -3.023438 0.78125 -3.921875 C 0.78125 -4.828125 0.929688 -5.578125 1.234375 -6.171875 C 1.546875 -6.773438 1.960938 -7.222656 2.484375 -7.515625 C 3.015625 -7.816406 3.625 -7.96875 4.3125 -7.96875 C 4.988281 -7.96875 5.59375 -7.816406 6.125 -7.515625 C 6.65625 -7.222656 7.070312 -6.773438 7.375 -6.171875 C 7.675781 -5.578125 7.828125 -4.828125 7.828125 -3.921875 C 7.828125 -3.023438 7.675781 -2.273438 7.375 -1.671875 C 7.070312 -1.066406 6.65625 -0.617188 6.125 -0.328125 C 5.59375 -0.0351562 4.988281 0.109375 4.3125 0.109375 Z M 4.3125 -0.734375 C 5.125 -0.734375 5.75 -0.988281 6.1875 -1.5 C 6.625 -2.007812 6.84375 -2.816406 6.84375 -3.921875 C 6.84375 -5.023438 6.625 -5.832031 6.1875 -6.34375 C 5.75 -6.851562 5.125 -7.109375 4.3125 -7.109375 C 2.613281 -7.109375 1.765625 -6.046875 1.765625 -3.921875 C 1.765625 -1.796875 2.613281 -0.734375 4.3125 -0.734375 Z M 4.3125 -0.734375 "/></g></g></g><g fill="#ffbd59" fill-opacity="1"><g transform="translate(225.122199, 71.037121)"><g><path d="M 6.125 -7.859375 L 6.125 -7.0625 L 3.671875 -7.0625 L 3.671875 0 L 2.75 0 L 2.75 -7.0625 L 0.296875 -7.0625 L 0.296875 -7.859375 Z M 6.125 -7.859375 "/></g></g></g><g fill="#ffbd59" fill-opacity="1"><g transform="translate(231.530729, 71.037121)"><g><path d="M 4 -7.859375 C 4.539062 -7.859375 5.003906 -7.757812 5.390625 -7.5625 C 5.773438 -7.363281 6.066406 -7.082031 6.265625 -6.71875 C 6.472656 -6.363281 6.578125 -5.945312 6.578125 -5.46875 C 6.578125 -4.976562 6.472656 -4.550781 6.265625 -4.1875 C 6.066406 -3.832031 5.773438 -3.554688 5.390625 -3.359375 C 5.003906 -3.171875 4.539062 -3.078125 4 -3.078125 L 2.109375 -3.078125 L 2.109375 0 L 1.1875 0 L 1.1875 -7.859375 Z M 3.96875 -3.859375 C 5.0625 -3.859375 5.609375 -4.394531 5.609375 -5.46875 C 5.609375 -6.53125 5.0625 -7.0625 3.96875 -7.0625 L 2.109375 -7.0625 L 2.109375 -3.859375 Z M 3.96875 -3.859375 "/></g></g></g><g fill="#ffbd59" fill-opacity="1"><g transform="translate(238.685312, 71.037121)"><g/></g></g><g fill="#ffbd59" fill-opacity="1"><g transform="translate(241.379685, 71.037121)"><g><path d="M 4.28125 0 L 3.0625 0 L 0.34375 -7.859375 L 1.328125 -7.859375 L 3.625 -1.15625 L 3.765625 -1.15625 L 6.03125 -7.859375 L 7 -7.859375 Z M 4.28125 0 "/></g></g></g><g fill="#ffbd59" fill-opacity="1"><g transform="translate(248.711388, 71.037121)"><g><path d="M 5.640625 -2.765625 L 1.578125 -2.765625 C 1.597656 -2.046875 1.769531 -1.515625 2.09375 -1.171875 C 2.414062 -0.835938 2.851562 -0.671875 3.40625 -0.671875 C 3.832031 -0.671875 4.171875 -0.742188 4.421875 -0.890625 C 4.679688 -1.046875 4.882812 -1.285156 5.03125 -1.609375 L 5.15625 -1.609375 L 5.71875 -1.265625 C 5.550781 -0.835938 5.273438 -0.5 4.890625 -0.25 C 4.515625 -0.0078125 4.019531 0.109375 3.40625 0.109375 C 2.832031 0.109375 2.335938 0 1.921875 -0.21875 C 1.515625 -0.445312 1.203125 -0.789062 0.984375 -1.25 C 0.765625 -1.707031 0.65625 -2.273438 0.65625 -2.953125 C 0.65625 -3.628906 0.769531 -4.195312 1 -4.65625 C 1.238281 -5.125 1.5625 -5.46875 1.96875 -5.6875 C 2.375 -5.914062 2.835938 -6.03125 3.359375 -6.03125 C 4.117188 -6.03125 4.710938 -5.816406 5.140625 -5.390625 C 5.566406 -4.960938 5.78125 -4.328125 5.78125 -3.484375 C 5.78125 -3.160156 5.773438 -2.941406 5.765625 -2.828125 Z M 4.921875 -3.484375 C 4.898438 -4.117188 4.753906 -4.578125 4.484375 -4.859375 C 4.222656 -5.148438 3.847656 -5.296875 3.359375 -5.296875 C 2.835938 -5.296875 2.425781 -5.148438 2.125 -4.859375 C 1.832031 -4.578125 1.65625 -4.117188 1.59375 -3.484375 Z M 4.921875 -3.484375 "/></g></g></g><g fill="#ffbd59" fill-opacity="1"><g transform="translate(255.023307, 71.037121)"><g><path d="M 1.03125 0 L 1.03125 -5.921875 L 1.859375 -5.921875 L 1.859375 -5 L 1.984375 -4.96875 C 2.253906 -5.644531 2.769531 -5.984375 3.53125 -5.984375 C 3.9375 -5.984375 4.238281 -5.910156 4.4375 -5.765625 L 4.21875 -5.015625 L 4.109375 -5 C 3.890625 -5.101562 3.644531 -5.15625 3.375 -5.15625 C 2.90625 -5.15625 2.539062 -4.976562 2.28125 -4.625 C 2.03125 -4.269531 1.90625 -3.695312 1.90625 -2.90625 L 1.90625 0 Z M 1.03125 0 "/></g></g></g><g fill="#ffbd59" fill-opacity="1"><g transform="translate(259.596228, 71.037121)"><g><path d="M 1.46875 -7.0625 C 1.28125 -7.0625 1.128906 -7.117188 1.015625 -7.234375 C 0.898438 -7.359375 0.84375 -7.507812 0.84375 -7.6875 C 0.84375 -7.863281 0.898438 -8.007812 1.015625 -8.125 C 1.128906 -8.238281 1.28125 -8.296875 1.46875 -8.296875 C 1.65625 -8.296875 1.804688 -8.238281 1.921875 -8.125 C 2.035156 -8.007812 2.09375 -7.863281 2.09375 -7.6875 C 2.09375 -7.507812 2.035156 -7.359375 1.921875 -7.234375 C 1.804688 -7.117188 1.65625 -7.0625 1.46875 -7.0625 Z M 1.03125 0 L 1.03125 -5.921875 L 1.90625 -5.921875 L 1.90625 0 Z M 1.03125 0 "/></g></g></g><g fill="#ffbd59" fill-opacity="1"><g transform="translate(262.53213, 71.037121)"><g><path d="M 1.328125 0 L 1.328125 -5.203125 L 0.296875 -5.203125 L 0.296875 -5.9375 L 1.328125 -5.9375 C 1.253906 -6.1875 1.21875 -6.429688 1.21875 -6.671875 C 1.21875 -7.046875 1.300781 -7.363281 1.46875 -7.625 C 1.632812 -7.894531 1.859375 -8.09375 2.140625 -8.21875 C 2.429688 -8.351562 2.769531 -8.421875 3.15625 -8.421875 C 3.75 -8.421875 4.203125 -8.289062 4.515625 -8.03125 L 4.171875 -7.421875 L 4.0625 -7.390625 C 3.832031 -7.578125 3.53125 -7.671875 3.15625 -7.671875 C 2.800781 -7.671875 2.535156 -7.582031 2.359375 -7.40625 C 2.179688 -7.226562 2.09375 -6.972656 2.09375 -6.640625 C 2.09375 -6.441406 2.128906 -6.207031 2.203125 -5.9375 L 4.078125 -5.9375 L 4.078125 -5.203125 L 2.203125 -5.203125 L 2.203125 0 Z M 1.328125 0 "/></g></g></g><g fill="#ffbd59" fill-opacity="1"><g transform="translate(266.75081, 71.037121)"><g><path d="M 1.46875 -7.0625 C 1.28125 -7.0625 1.128906 -7.117188 1.015625 -7.234375 C 0.898438 -7.359375 0.84375 -7.507812 0.84375 -7.6875 C 0.84375 -7.863281 0.898438 -8.007812 1.015625 -8.125 C 1.128906 -8.238281 1.28125 -8.296875 1.46875 -8.296875 C 1.65625 -8.296875 1.804688 -8.238281 1.921875 -8.125 C 2.035156 -8.007812 2.09375 -7.863281 2.09375 -7.6875 C 2.09375 -7.507812 2.035156 -7.359375 1.921875 -7.234375 C 1.804688 -7.117188 1.65625 -7.0625 1.46875 -7.0625 Z M 1.03125 0 L 1.03125 -5.921875 L 1.90625 -5.921875 L 1.90625 0 Z M 1.03125 0 "/></g></g></g><g fill="#ffbd59" fill-opacity="1"><g transform="translate(269.686712, 71.037121)"><g><path d="M 3.40625 0.109375 C 2.875 0.109375 2.398438 -0.0078125 1.984375 -0.25 C 1.578125 -0.488281 1.253906 -0.835938 1.015625 -1.296875 C 0.773438 -1.765625 0.65625 -2.316406 0.65625 -2.953125 C 0.65625 -3.609375 0.773438 -4.164062 1.015625 -4.625 C 1.253906 -5.09375 1.578125 -5.441406 1.984375 -5.671875 C 2.398438 -5.910156 2.875 -6.03125 3.40625 -6.03125 C 4.03125 -6.03125 4.523438 -5.910156 4.890625 -5.671875 C 5.265625 -5.441406 5.535156 -5.128906 5.703125 -4.734375 L 5.109375 -4.3125 L 5 -4.3125 C 4.832031 -4.632812 4.625 -4.867188 4.375 -5.015625 C 4.125 -5.171875 3.800781 -5.25 3.40625 -5.25 C 3.039062 -5.25 2.71875 -5.160156 2.4375 -4.984375 C 2.164062 -4.816406 1.953125 -4.5625 1.796875 -4.21875 C 1.640625 -3.875 1.5625 -3.453125 1.5625 -2.953125 C 1.5625 -2.460938 1.640625 -2.046875 1.796875 -1.703125 C 1.953125 -1.359375 2.164062 -1.097656 2.4375 -0.921875 C 2.71875 -0.753906 3.039062 -0.671875 3.40625 -0.671875 C 3.8125 -0.671875 4.148438 -0.765625 4.421875 -0.953125 C 4.691406 -1.140625 4.90625 -1.429688 5.0625 -1.828125 L 5.171875 -1.828125 L 5.75 -1.5 C 5.59375 -1 5.316406 -0.601562 4.921875 -0.3125 C 4.523438 -0.03125 4.019531 0.109375 3.40625 0.109375 Z M 3.40625 0.109375 "/></g></g></g><g fill="#ffbd59" fill-opacity="1"><g transform="translate(275.789307, 71.037121)"><g><path d="M 2.4375 0.109375 C 1.851562 0.109375 1.394531 -0.0390625 1.0625 -0.34375 C 0.738281 -0.644531 0.578125 -1.082031 0.578125 -1.65625 C 0.578125 -2 0.648438 -2.289062 0.796875 -2.53125 C 0.941406 -2.78125 1.164062 -2.976562 1.46875 -3.125 C 1.78125 -3.28125 2.179688 -3.398438 2.671875 -3.484375 C 3.097656 -3.554688 3.421875 -3.632812 3.640625 -3.71875 C 3.867188 -3.8125 4.019531 -3.910156 4.09375 -4.015625 C 4.175781 -4.128906 4.21875 -4.269531 4.21875 -4.4375 C 4.21875 -4.707031 4.125 -4.914062 3.9375 -5.0625 C 3.75 -5.207031 3.453125 -5.28125 3.046875 -5.28125 C 2.660156 -5.28125 2.332031 -5.203125 2.0625 -5.046875 C 1.789062 -4.898438 1.539062 -4.679688 1.3125 -4.390625 L 1.203125 -4.390625 L 0.78125 -5 C 1.03125 -5.3125 1.347656 -5.5625 1.734375 -5.75 C 2.117188 -5.9375 2.554688 -6.03125 3.046875 -6.03125 C 3.742188 -6.03125 4.257812 -5.878906 4.59375 -5.578125 C 4.925781 -5.273438 5.09375 -4.851562 5.09375 -4.3125 L 5.09375 -1.171875 C 5.09375 -0.835938 5.234375 -0.671875 5.515625 -0.671875 C 5.609375 -0.671875 5.695312 -0.6875 5.78125 -0.71875 L 5.859375 -0.703125 L 5.953125 -0.09375 C 5.890625 -0.0507812 5.804688 -0.0195312 5.703125 0 C 5.597656 0.03125 5.488281 0.046875 5.375 0.046875 C 5.050781 0.046875 4.804688 -0.0234375 4.640625 -0.171875 C 4.472656 -0.316406 4.363281 -0.53125 4.3125 -0.8125 L 4.203125 -0.8125 C 4.035156 -0.5 3.804688 -0.265625 3.515625 -0.109375 C 3.234375 0.0351562 2.875 0.109375 2.4375 0.109375 Z M 2.640625 -0.578125 C 2.960938 -0.578125 3.242188 -0.65625 3.484375 -0.8125 C 3.734375 -0.96875 3.921875 -1.179688 4.046875 -1.453125 C 4.179688 -1.734375 4.25 -2.050781 4.25 -2.40625 L 4.25 -3.15625 L 4.140625 -3.1875 C 4.003906 -3.09375 3.84375 -3.015625 3.65625 -2.953125 C 3.46875 -2.890625 3.203125 -2.832031 2.859375 -2.78125 C 2.515625 -2.738281 2.238281 -2.664062 2.03125 -2.5625 C 1.832031 -2.46875 1.691406 -2.347656 1.609375 -2.203125 C 1.523438 -2.054688 1.484375 -1.875 1.484375 -1.65625 C 1.484375 -1.300781 1.582031 -1.03125 1.78125 -0.84375 C 1.988281 -0.664062 2.273438 -0.578125 2.640625 -0.578125 Z M 2.640625 -0.578125 "/></g></g></g><g fill="#ffbd59" fill-opacity="1"><g transform="translate(281.913372, 71.037121)"><g><path d="M 4 -0.9375 L 4.28125 -0.3125 C 4.144531 -0.175781 3.960938 -0.0703125 3.734375 0 C 3.503906 0.0703125 3.257812 0.109375 3 0.109375 C 1.863281 0.109375 1.296875 -0.460938 1.296875 -1.609375 L 1.296875 -5.203125 L 0.265625 -5.203125 L 0.265625 -5.9375 L 1.296875 -5.9375 L 1.296875 -7.1875 L 2.171875 -7.328125 L 2.171875 -5.9375 L 4.078125 -5.9375 L 4.078125 -5.203125 L 2.171875 -5.203125 L 2.171875 -1.6875 C 2.171875 -1.007812 2.46875 -0.671875 3.0625 -0.671875 C 3.382812 -0.671875 3.660156 -0.757812 3.890625 -0.9375 Z M 4 -0.9375 "/></g></g></g><g fill="#ffbd59" fill-opacity="1"><g transform="translate(286.421886, 71.037121)"><g><path d="M 1.46875 -7.0625 C 1.28125 -7.0625 1.128906 -7.117188 1.015625 -7.234375 C 0.898438 -7.359375 0.84375 -7.507812 0.84375 -7.6875 C 0.84375 -7.863281 0.898438 -8.007812 1.015625 -8.125 C 1.128906 -8.238281 1.28125 -8.296875 1.46875 -8.296875 C 1.65625 -8.296875 1.804688 -8.238281 1.921875 -8.125 C 2.035156 -8.007812 2.09375 -7.863281 2.09375 -7.6875 C 2.09375 -7.507812 2.035156 -7.359375 1.921875 -7.234375 C 1.804688 -7.117188 1.65625 -7.0625 1.46875 -7.0625 Z M 1.03125 0 L 1.03125 -5.921875 L 1.90625 -5.921875 L 1.90625 0 Z M 1.03125 0 "/></g></g></g><g fill="#ffbd59" fill-opacity="1"><g transform="translate(289.357787, 71.037121)"><g><path d="M 3.40625 0.109375 C 2.84375 0.109375 2.351562 -0.00390625 1.9375 -0.234375 C 1.53125 -0.472656 1.210938 -0.820312 0.984375 -1.28125 C 0.765625 -1.75 0.65625 -2.304688 0.65625 -2.953125 C 0.65625 -3.609375 0.765625 -4.164062 0.984375 -4.625 C 1.210938 -5.09375 1.53125 -5.441406 1.9375 -5.671875 C 2.351562 -5.910156 2.84375 -6.03125 3.40625 -6.03125 C 3.957031 -6.03125 4.441406 -5.910156 4.859375 -5.671875 C 5.273438 -5.441406 5.59375 -5.09375 5.8125 -4.625 C 6.039062 -4.164062 6.15625 -3.609375 6.15625 -2.953125 C 6.15625 -2.304688 6.039062 -1.75 5.8125 -1.28125 C 5.59375 -0.820312 5.273438 -0.472656 4.859375 -0.234375 C 4.441406 -0.00390625 3.957031 0.109375 3.40625 0.109375 Z M 3.40625 -0.671875 C 3.988281 -0.671875 4.4375 -0.851562 4.75 -1.21875 C 5.0625 -1.59375 5.21875 -2.171875 5.21875 -2.953125 C 5.21875 -3.742188 5.0625 -4.320312 4.75 -4.6875 C 4.4375 -5.0625 3.988281 -5.25 3.40625 -5.25 C 2.8125 -5.25 2.351562 -5.0625 2.03125 -4.6875 C 1.71875 -4.3125 1.5625 -3.734375 1.5625 -2.953125 C 1.5625 -2.171875 1.71875 -1.59375 2.03125 -1.21875 C 2.351562 -0.851562 2.8125 -0.671875 3.40625 -0.671875 Z M 3.40625 -0.671875 "/></g></g></g><g fill="#ffbd59" fill-opacity="1"><g transform="translate(296.152761, 71.037121)"><g><path d="M 1.03125 0 L 1.03125 -5.921875 L 1.859375 -5.921875 L 1.859375 -5 L 1.984375 -4.96875 C 2.171875 -5.3125 2.414062 -5.570312 2.71875 -5.75 C 3.03125 -5.9375 3.40625 -6.03125 3.84375 -6.03125 C 4.5625 -6.03125 5.078125 -5.847656 5.390625 -5.484375 C 5.710938 -5.128906 5.875 -4.570312 5.875 -3.8125 L 5.875 0 L 5 0 L 5 -3.796875 C 5 -4.148438 4.953125 -4.4375 4.859375 -4.65625 C 4.773438 -4.875 4.632812 -5.03125 4.4375 -5.125 C 4.25 -5.226562 4 -5.28125 3.6875 -5.28125 C 3.15625 -5.28125 2.722656 -5.101562 2.390625 -4.75 C 2.066406 -4.394531 1.90625 -3.828125 1.90625 -3.046875 L 1.90625 0 Z M 1.03125 0 "/></g></g></g></svg>